# xmcd CD database file
#
# Track frame offsets:
#	150
#	29422
#	58644
#	88100
#	119362
#	143616
#	173051
#	194915
#	221860
#	247221
#	286118
#
# Disc length: 4197 seconds
#
# Revision: 0
# Processed by: cddbd v1.5.1PL2 Copyright (c) Steve Scherf et al.
# Submitted via: CDex 1.51
#
DISCID=ac10630b
DTITLE=New Orleans United - Move the body over
DYEAR=2001
DGENRE=Jazz
TTITLE0=Moonlight and roses
TTITLE1=Don't give up the ship
TTITLE2=Darkness on the delta
TTITLE3=Creole song
TTITLE4=Move the body over
TTITLE5=Gypsy love song
TTITLE6=Doctor jazz
TTITLE7=Magic isle
TTITLE8=His eye is on the sparrow
TTITLE9=My mother's eyes
TTITLE10=You broke your promise
EXTD=YEAR: 2001
EXTT0=
EXTT1=
EXTT2=
EXTT3=
EXTT4=
EXTT5=
EXTT6=
EXTT7=
EXTT8=
EXTT9=
EXTT10=
PLAYORDER=
